<svg xmlns="http://www.w3.org/2000/svg" width="62.419" height="72" viewBox="0 0 62.419 72">
  <g id="Group_6" data-name="Group 6" transform="translate(-1594.589 637.059)">
    <path id="Path_25" data-name="Path 25" d="M1635.473-579.311c-.155,1.652-.417,3.13,1.129,4.3a36.038,36.038,0,0,1,3.026,2.981,1.284,1.284,0,0,1,.141,1.956c-1.083,1.4-2.122,2.839-3.2,4.248-.776,1.018-1.516,1.021-2.309,0-.869-1.12-1.738-2.242-2.55-3.4-.747-1.069-1.815-.556-2.733-.557-.3,0-.671.659-.873,1.082-.425.894-.689,1.87-1.165,2.732a1.729,1.729,0,0,1-1.191.816,1.527,1.527,0,0,1-1.091-.8c-.521-1.042-.86-2.173-1.358-3.228a1.384,1.384,0,0,0-.884-.646,2.76,2.76,0,0,0-3.247,1.506,18.881,18.881,0,0,1-1.893,2.561c-.73.918-1.483.933-2.176.034-1.125-1.46-2.207-2.952-3.323-4.418a1.245,1.245,0,0,1,.178-1.87,35.166,35.166,0,0,1,3.024-2.983c1.538-1.167,1.3-2.644,1.153-4.326-1.955.212-3.846.411-5.735.623q-7.025.789-14.049,1.587c-1.3.146-1.752-.253-1.755-1.588-.01-4.5,0-9-.008-13.506,0-.835.2-1.557,1.174-1.548,1,.009,1.132.778,1.114,1.59-.013.623,0,1.247,0,2.065.46-.248.736-.371.985-.536q8.677-5.755,17.356-11.507a1.836,1.836,0,0,0,1.018-2,6.664,6.664,0,0,1-.009-.743,17.2,17.2,0,0,1,1.448-8.1c1.906-4.4,2.587-9.187,3.267-13.93a20.669,20.669,0,0,1,2.135-7.194,13.751,13.751,0,0,1,1.567-2.263c.791-.928,1.5-.909,2.319-.015a11.54,11.54,0,0,1,2.785,5.315c.691,3.072,1.086,6.211,1.788,9.279a49.345,49.345,0,0,0,2.575,9.18,16.774,16.774,0,0,1,1.222,8.031,2.555,2.555,0,0,0,1.308,2.6c5.688,3.724,11.332,7.513,16.994,11.277.281.187.584.342,1.1.638,0-.945,0-1.672,0-2.4s.3-1.279,1.089-1.294c.836-.015,1.186.536,1.186,1.32,0,4.644.013,9.287-.005,13.931,0,1.152-.5,1.529-1.732,1.391q-8.715-.977-17.429-1.966C1637.07-579.168,1636.3-579.232,1635.473-579.311Zm-12.939,7.036c-.017-.264-.018-.473-.044-.678a32.777,32.777,0,0,1,2.118-17.3,1.9,1.9,0,0,1,1.134-1.049,1.476,1.476,0,0,1,1.151.818c1.313,3.669,2.645,7.336,2.493,11.343-.087,2.284-.016,4.574-.016,7.049.471-.073,1.527.046,1.733-.318.838-1.48,1.979-2.868,1.976-4.727-.013-9.712-.03-19.423.016-29.134a9.527,9.527,0,0,0-1.036-5,7.593,7.593,0,0,1-.745-1.985c-.864-3.578-1.711-7.16-2.513-10.753-.163-.731-.283-1.247-1.223-1.173a18.272,18.272,0,0,1-3.187,0c-1.15-.111-1.461.369-1.639,1.444a54.711,54.711,0,0,1-3.676,13.61,5.9,5.9,0,0,0-.524,2.323c-.035,9.642.02,19.286-.059,28.927a10.26,10.26,0,0,0,1.352,5.451C1620.693-571.969,1620.636-571.936,1622.534-572.275Zm-20.729-18.192c-1.565,1.035-2.938,1.884-4.234,2.839a1.878,1.878,0,0,0-.667,1.274c-.073,1.84-.035,3.685-.026,5.529,0,.406.047.812.071,1.2a2.334,2.334,0,0,0,.445.065c6.023-.664,12.045-1.339,18.07-1.991.667-.072.773-.423.771-1-.017-3.651-.009-7.3-.014-10.954a4.96,4.96,0,0,0-.1-.619c-.5.268-.9.467-1.291.692q-5.465,3.185-10.926,6.377c-1.253.73-2.067.284-2.1-1.153C1601.792-588.868,1601.805-589.529,1601.805-590.467Zm33.629,8.819,19.291,2.143a29.541,29.541,0,0,1,.036-4.254c.391-2.585-.47-4.335-2.891-5.363a16.23,16.23,0,0,1-2.077-1.3c0,.913.01,1.548,0,2.181-.027,1.467-.815,1.93-2.068,1.2-2.789-1.62-5.567-3.257-8.355-4.878-1.266-.737-2.545-1.453-3.934-2.246ZM1604.2-590.06a1.422,1.422,0,0,0,.376-.073q5.562-3.231,11.113-6.481a1.022,1.022,0,0,0,.507-.618c.059-.862.024-1.73.024-2.771-.411.228-.625.328-.819.457-3.362,2.236-6.686,4.533-10.1,6.682A2.216,2.216,0,0,0,1604.2-590.06Zm31.171-10a16.57,16.57,0,0,1-.011,1.821,1.8,1.8,0,0,0,1.116,2c3.42,1.919,6.788,3.93,10.18,5.9a6.08,6.08,0,0,0,.732.307,2.216,2.216,0,0,0-1.087-2.83c-2.611-1.613-5.112-3.406-7.667-5.112C1637.627-598.647,1636.594-599.283,1635.372-600.064Zm-9.561,30.433a27.139,27.139,0,0,0-.025-16.472A27.119,27.119,0,0,0,1625.811-569.631Zm2.411-57.8a14.694,14.694,0,0,0-2.462-6.686,15.258,15.258,0,0,0-2.34,6.629c.461.023.806.053,1.151.055C1625.727-627.43,1626.884-627.434,1628.222-627.434Zm-11.369,53.561c-.824.9-1.6,1.721-2.323,2.577a.807.807,0,0,0-.139.722c.531.8,1.131,1.557,1.719,2.345C1618.565-570.665,1618.691-571.467,1616.853-573.873Zm17.739-.094c-.515,1.024-.9,1.759-1.249,2.515a.7.7,0,0,0,.044.586c.622.881,1.28,1.738,2.023,2.734.666-.887,1.252-1.621,1.771-2.4a.779.779,0,0,0-.082-.727C1636.346-572.127,1635.542-572.952,1634.592-573.967Z" transform="translate(0)" fill="#9b9b9b" fill-rule="evenodd"/>
    <path id="Path_26" data-name="Path 26" d="M1731.6-539.533c0,1.169.022,2.337,0,3.505a3.589,3.589,0,0,1-3.56,3.619,3.564,3.564,0,0,1-3.563-3.611c-.036-2.372-.033-4.745,0-7.117a3.579,3.579,0,0,1,3.558-3.608,3.589,3.589,0,0,1,3.567,3.6C1731.621-541.942,1731.6-540.737,1731.6-539.533Zm-2.3.008c0-1.131.014-2.262,0-3.392-.014-.836-.343-1.5-1.279-1.49s-1.242.7-1.245,1.526q-.014,3.339,0,6.678c0,.8.343,1.41,1.224,1.424.938.015,1.289-.6,1.3-1.46C1729.3-537.334,1729.293-538.429,1729.294-539.525Z" transform="translate(-102.229 -71.1)" fill="#9b9b9b" fill-rule="evenodd"/>
  </g>
</svg>
