<svg xmlns="http://www.w3.org/2000/svg" width="69.528" height="75.201" viewBox="0 0 69.528 75.201">
  <g id="Group_5" data-name="Group 5" transform="translate(-334.082 899.331)">
    <path id="Path_18" data-name="Path 18" d="M487.79-788.948l-1.114,4.095c-.151.556-.224,1.165-.921,1.349a1.311,1.311,0,0,1-1.477-.683c-.962-1.445-2.117-1.634-3.608-.8a13.345,13.345,0,0,1-2.471.932.945.945,0,0,0-.77,1.078c.038,2.852.017,5.7.016,8.557a4.018,4.018,0,0,1-.025.755,1.011,1.011,0,0,1-1.057.892.945.945,0,0,1-1.024-.823,11.583,11.583,0,0,1-.074-1.659c0-2.6-.014-5.2.013-7.8a.866.866,0,0,0-.691-.975c-1.382-.471-2.75-.989-4.107-1.527a.972.972,0,0,0-1.1.138c-.731.58-1.489,1.127-2.254,1.661-.936.653-1.811.225-1.92-.919s-.217-2.31-.335-3.464a7.013,7.013,0,0,0-.153-.713l-1.416.391c-.78.215-1.376-.014-1.568-.6-.228-.7.115-1.236.974-1.5.841-.263,1.685-.516,2.529-.769a2.432,2.432,0,0,0,1.732-1.922c.488-2.058.975-4.117,1.42-6.185a1.709,1.709,0,0,0-.148-1.048,29.982,29.982,0,0,1-1.923-3.679,43.838,43.838,0,0,1-.971-4.633,1.384,1.384,0,0,0-.566-.844c-1.858-1.015-3.76-1.949-5.61-2.977a1.587,1.587,0,0,1-.75-1.062,1.287,1.287,0,0,1,.662-1.022,3.4,3.4,0,0,0,1.934-2,11.95,11.95,0,0,0,.945-4.943,14.512,14.512,0,0,1,11.864-14,14.451,14.451,0,0,1,16.606,11.3c.291,1.578.248,3.216.488,4.806a6.978,6.978,0,0,0,2.874,4.877c.885.627.749,1.568-.247,2.076-1.864.95-3.732,1.893-5.573,2.885a1.337,1.337,0,0,0-.59.832c-.167.89-.208,1.8-.334,2.7a12.949,12.949,0,0,1-2.16,4.874,3.191,3.191,0,0,0-.381,2.767c.505,1.764.845,3.576,1.287,5.359a2.682,2.682,0,0,0,2.154,1.985c4.478,1.191,8.947,2.418,13.42,3.631.681.185,1.363.363,2.042.555a6.892,6.892,0,0,1,5.064,6.279c.127,2.039.284,4.077.426,6.115.012.176.025.353.028.529.01.781-.392,1.292-1.038,1.324s-1.111-.447-1.167-1.223c-.16-2.189-.317-4.378-.458-6.568a4.61,4.61,0,0,0-3.475-4.342q-7.14-1.959-14.286-3.9C488.294-788.857,488.073-788.89,487.79-788.948Zm-11.409-27.3a33.757,33.757,0,0,0-8.811,1.2c-.52.137-.613.369-.559.848.214,1.9.436,3.807.58,5.716a10.67,10.67,0,0,0,1.628,5.2c.552.841,1,1.747,1.5,2.622,2.187,3.822,7.524,4.582,10.319,1.2,1.571-1.9,2.505-4.328,3.709-6.528a1.993,1.993,0,0,0,.156-.734c.264-2.505.5-5.014.794-7.516.062-.534-.109-.69-.584-.817A33.182,33.182,0,0,0,476.381-816.249Zm-13.371.427a35.558,35.558,0,0,1,26.924.086,13.483,13.483,0,0,1-1.421-6.572,8.868,8.868,0,0,0-.3-2.013,12.275,12.275,0,0,0-12.5-9.355,12.26,12.26,0,0,0-11.319,9.867C463.917-821.222,464.265-818.508,463.01-815.822Zm7.226,18.263c-.27,1.144-.5,2.2-.775,3.247a1.148,1.148,0,0,0,.324,1.218c1.818,1.894,3.606,3.816,5.417,5.717.376.395.8.743,1.214,1.122a.785.785,0,0,0,.163-.109q3.283-3.462,6.556-6.933a.737.737,0,0,0,.237-.514c-.264-1.244-.567-2.479-.868-3.757C478.379-794.344,474.352-794.353,470.235-797.559Zm-1.791,6.236c-.254,1.012-1.493,1.1-1.465,2.118.024.836.158,1.668.255,2.625.561-.4,1.012-.678,1.405-1.02a1.646,1.646,0,0,1,1.945-.267,13.357,13.357,0,0,0,1.335.462l.078-.154Zm16.322,4.676.167-.206c.237-.866.481-1.73.7-2.6a.517.517,0,0,0-.1-.407c-.413-.46-.851-.9-1.309-1.374l-3.48,3.686.082.214C482.28-788.038,483.728-788.694,484.766-786.647Zm-21.951-26.529,2.236,1.135-.241-2.166Zm25.1-1.049-.218,2.155,2.138-1.119Z" transform="translate(-105.422 -53.743)" fill="#9b9b9b" stroke="#9b9b9b" stroke-width="0.2" fill-rule="evenodd"/>
    <path id="Path_19" data-name="Path 19" d="M344.213-858.606c0-.408,0-.73,0-1.051q-.022-11.4-.043-22.792c0-1.48.051-1.547,1.541-1.925-.079-1.78-.158-3.58-.237-5.363-1.513-.233-1.637-.353-1.706-1.841-.1-2.067-.174-4.135-.244-6.2-.03-.881.306-1.279,1.174-1.34,1.007-.071,2.017-.1,3.026-.109.779-.007,1.145.362,1.2,1.246.094,1.561.144,3.125.209,4.689.022.529.022,1.06.055,1.589.081,1.335-.1,1.581-1.515,1.837.081,1.831.163,3.678.244,5.5,1.461.345,1.543.476,1.665,1.95.434,5.253.889,10.5,1.331,15.756.376,4.473.74,8.948,1.117,13.421.241,2.858.5,5.715.739,8.524a4.621,4.621,0,0,1,1.142-.412c.683-.051,1.109.487,1.019,1.273-.2,1.753-.43,3.5-.664,5.251q-.883,6.6-1.783,13.187c-.112.823-.618,1.279-1.273,1.169s-.98-.661-.873-1.5c.028-.22.032-.442.054-.755-.929,0-1.806.007-2.684,0-.937-.01-1.336-.389-1.355-1.333q-.032-1.589,0-3.18c.018-.947.415-1.33,1.348-1.339.984-.009,1.97.024,2.952-.023.216-.01.578-.257.6-.434.347-2.369.648-4.745.956-7.119a4.994,4.994,0,0,0,0-.54c-.421.119-.774.213-1.124.318-1.785.535-3.574,1.059-5.352,1.615a4.3,4.3,0,0,0-3.1,3.9c-.246,2.1-.321,4.225-.476,6.338a5.864,5.864,0,0,1-.119.973.985.985,0,0,1-1.117.808.981.981,0,0,1-.982-1.046c.015-.907.083-1.814.153-2.719.133-1.709.191-3.43.45-5.12a6.424,6.424,0,0,1,3.121-4.613.937.937,0,0,0,.518-.9c.032-3.432.074-6.865.153-10.3.015-.655-.175-.854-.834-.9-2.691-.191-5.379-.433-8.065-.69-.994-.1-1.252-.432-1.256-1.424q-.007-1.855,0-3.71c0-1.1.379-1.489,1.456-1.4,2.639.212,5.276.459,7.913.691C343.727-858.637,343.9-858.628,344.213-858.606Zm2.16-23.443c0,.367,0,.664,0,.961q.021,11.664.041,23.327c0,1.154-.342,1.5-1.5,1.417-1.459-.1-2.915-.251-4.372-.38l-4.089-.364v2.176c2.817.246,5.578.5,8.343.721,1.515.12,1.766.36,1.744,1.908q-.071,5.15-.145,10.3c0,.268,0,.536,0,.92,1.3-.387,2.463-.776,3.653-1.076.566-.143.7-.4.656-.949-.342-3.87-.657-7.742-.985-11.613q-.571-6.749-1.147-13.5-.493-5.806-.986-11.613c-.063-.741-.141-1.482-.214-2.237Zm.6-10.075c-.074-1.67-.145-3.246-.217-4.877l-1.02.09c.077,1.662.151,3.239.226,4.858Zm3.749,63.37c.05-.469.1-.9.142-1.338h-2.272v1.338Z" fill="#9b9b9b" stroke="#9b9b9b" stroke-width="0.2" fill-rule="evenodd"/>
    <path id="Path_20" data-name="Path 20" d="M660.779-451.969c-1.816,0-3.631,0-5.446,0-1.007,0-1.372-.36-1.381-1.354-.01-1.084-.013-2.169,0-3.252a1.094,1.094,0,0,1,1.258-1.244q5.522-.013,11.044,0c.9,0,1.3.4,1.314,1.277.012,1.109.014,2.219,0,3.328a1.112,1.112,0,0,1-1.269,1.246C664.461-451.959,662.62-451.968,660.779-451.969Zm4.549-3.6H656.16v1.335h9.169Z" transform="translate(-271.325 -374.537)" fill="#9b9b9b" stroke="#9b9b9b" stroke-width="0.2" fill-rule="evenodd"/>
    <path id="Path_21" data-name="Path 21" d="M469.766-454.18c.021-.226.04-.348.042-.469.005-.276,0-.552,0-.966-.7,0-1.364.005-2.031,0-.89-.009-1.43-.432-1.43-1.111s.531-1.094,1.428-1.1c.958,0,1.916-.007,2.874,0,.938.008,1.352.4,1.366,1.316.016,1.084.019,2.168,0,3.251-.016.878-.435,1.277-1.322,1.284q-1.89.016-3.781,0c-.783-.007-1.269-.44-1.273-1.094a1.13,1.13,0,0,1,1.262-1.11C467.829-454.193,468.759-454.18,469.766-454.18Z" transform="translate(-111.545 -374.535)" fill="#9b9b9b" stroke="#9b9b9b" stroke-width="0.2" fill-rule="evenodd"/>
    <path id="Path_22" data-name="Path 22" d="M523.851-745.623a28.108,28.108,0,0,0-8.068.164c-.943.156-1.875.381-2.809.586-.885.194-1.465-.062-1.644-.747-.162-.615.242-1.154,1.067-1.371a31.453,31.453,0,0,1,11.554-.839c.767.084,1.248.589,1.19,1.209A1.138,1.138,0,0,1,523.851-745.623Z" transform="translate(-150.284 -128.299)" fill="#9b9b9b" stroke="#9b9b9b" stroke-width="0.2" fill-rule="evenodd"/>
    <path id="Path_23" data-name="Path 23" d="M563.216-802.51a4.452,4.452,0,0,1-.582.691c-.97.773-.965.759-.624,1.9a3.539,3.539,0,0,1,.047.838,3.234,3.234,0,0,1-.84-.278c-1.1-.747-.881-.728-2.013.031a3.052,3.052,0,0,1-.782.258,3.566,3.566,0,0,1,.042-.845c.337-1.153.35-1.149-.632-1.89a2.639,2.639,0,0,1-.408-.334c-.268-.3-.16-.494.212-.569a.6.6,0,0,1,.225-.007,1.47,1.47,0,0,0,1.975-1.414c.028-.184.245-.34.375-.508.15.178.31.35.446.539a.674.674,0,0,1,.083.287,1.148,1.148,0,0,0,1.512,1.1,4.821,4.821,0,0,1,.815-.007Z" transform="translate(-189.301 -80.264)" fill="#9b9b9b" stroke="#9b9b9b" stroke-width="0.2" fill-rule="evenodd"/>
    <path id="Path_24" data-name="Path 24" d="M620.715-739.752c.722.216,1.482.4,2.207.676a.974.974,0,0,1,.629,1.222.969.969,0,0,1-1.173.815,13.031,13.031,0,0,1-2.308-.667.941.941,0,0,1-.533-1.255A1.116,1.116,0,0,1,620.715-739.752Z" transform="translate(-242.076 -135.32)" fill="#9b9b9b" stroke="#9b9b9b" stroke-width="0.2" fill-rule="evenodd"/>
  </g>
</svg>
