<svg xmlns="http://www.w3.org/2000/svg" width="70.535" height="56.858" viewBox="0 0 70.535 56.858">
  <g id="Group_4" data-name="Group 4" transform="translate(449.62 102.704)">
    <path id="Path_16" data-name="Path 16" d="M-436.834,51.513a10.815,10.815,0,0,1-.463,1.278,2.306,2.306,0,0,1-2.721,1.193c-3.451-.856-6.9-1.712-10.339-2.622a2.958,2.958,0,0,1-1.28-4.79,1.151,1.151,0,0,1,1.073-.213,1.457,1.457,0,0,1,.548,1.053c.033.6-.411,1.485-.144,1.766a4.168,4.168,0,0,0,1.926.69c2.726.7,5.468,1.349,8.182,2.1.805.221,1.05-.038,1.228-.747q2.26-9,4.572-17.989c.2-.772.005-1.045-.745-1.228-3.13-.762-6.254-1.553-9.364-2.395-.831-.225-1.11.021-1.3.8-.927,3.778-1.9,7.543-2.861,11.313-.045.18-.1.358-.142.537-.169.669-.6,1.165-1.257.847a1.507,1.507,0,0,1-.6-1.3c.438-2.1,1.005-4.175,1.534-6.257.5-1.975,1-3.951,1.519-5.921a2.429,2.429,0,0,1,3.328-1.978c3.2.792,6.391,1.622,9.586,2.431,2.073.525,2.655,1.453,2.227,3.568-.027.136-.061.269-.155.679.817-.609,1.431-1.06,2.037-1.519a7.046,7.046,0,0,1,6.713-1.2c5.126,1.6,10.262,3.168,15.388,4.769a4.058,4.058,0,0,1,2.955,5.171,4.068,4.068,0,0,1-5.356,2.6c-4.5-1.362-9-2.748-13.5-4.121-.681-.208-1.355-.491-1.081-1.36s1-.721,1.673-.517q6.7,2.026,13.4,4.055c1.528.461,2.56.02,2.971-1.241.392-1.205-.263-2.255-1.751-2.715q-7.8-2.412-15.613-4.8a4.783,4.783,0,0,0-4.42.782l-.091.065c-4.154,3.012-4.147,3.014-5.386,8.03-.567,2.3-1.169,4.585-1.827,7.163a54.238,54.238,0,0,0,6.867,1.419c7.65.6,15.316,1.019,22.978,1.455a3.061,3.061,0,0,0,1.746-.549q9.617-6.525,19.186-13.119a2.157,2.157,0,0,0,.875-3.048c-.664-1.042-1.838-1.237-3.132-.5q-6.523,3.711-13.041,7.43c-.322.183-.638.484-.973.508-.381.028-1.034-.1-1.114-.327a1.739,1.739,0,0,1,.265-1.241c.143-.252.544-.359.833-.527,3.624-2.1,7.254-4.186,10.865-6.307a7.361,7.361,0,0,0,1.549-1.24,2.124,2.124,0,0,0,.087-3,2.079,2.079,0,0,0-3.07.094c-2.425,2.4-4.818,4.832-7.224,7.251-.34.342-.688.676-1.017,1.029-.495.53-1.057.946-1.716.351s-.313-1.185.176-1.733c1.085-1.218,2.157-2.448,3.229-3.679.829-.952.894-1.782.2-2.446-.661-.636-1.562-.52-2.434.336-.767.753-1.522,1.519-2.273,2.289-.494.506-1.052.816-1.628.218s-.245-1.148.252-1.639c.686-.677,1.359-1.367,2.042-2.048,2.44-2.435,4.954-2.023,6.588,1.313.774-.857,1.463-1.671,2.205-2.431a4.027,4.027,0,0,1,4.726-1.188,3.934,3.934,0,0,1,2.49,4.075,2.824,2.824,0,0,0,.04.376,2.822,2.822,0,0,0,.4.1,4.1,4.1,0,0,1,3.867,3.115,4.113,4.113,0,0,1-1.934,4.487q-4.81,3.308-9.63,6.6c-3.364,2.3-6.715,4.63-10.111,6.887a3.437,3.437,0,0,1-1.946.577c-7.478-.415-14.96-.809-22.425-1.4C-431.307,52.76-434.01,52.029-436.834,51.513Z" transform="translate(3.046 -100.481)" fill="#9b9b9b" stroke="#9b9b9b" stroke-width="0.5" fill-rule="evenodd"/>
    <path id="Path_17" data-name="Path 17" d="M-376.385-89.5c-1.158-5.635-.631-10.606,4.691-13.864a10.789,10.789,0,0,1,12.84,1.5c4.033-3.305,8.458-4.131,13-1.3,5.106,3.183,5.912,8.066,4.523,13.657,1.38,0,2.633.006,3.887,0,.7,0,1.337.164,1.339.976s-.625.982-1.333.973c-1.26-.016-2.522.027-3.781-.017a1.235,1.235,0,0,0-1.2.707,37.256,37.256,0,0,1-3.726,4.941,44.835,44.835,0,0,1-10.82,7.914,3.42,3.42,0,0,1-3.567.013,45.239,45.239,0,0,1-11.455-8.348,30.157,30.157,0,0,1-3.252-4.467,1.3,1.3,0,0,0-1.283-.76c-1.259.047-2.521,0-3.781.018-.671.009-1.245-.182-1.278-.916-.036-.813.566-1.033,1.279-1.031C-379.01-89.5-377.72-89.5-376.385-89.5Zm20.967,5.109.206.035c.373-1.313.787-2.617,1.1-3.943a1.375,1.375,0,0,1,1.565-1.209c2.225.032,4.451.009,6.676.009,2.633,0,2.633,0,3.041-2.593a8.99,8.99,0,0,0-5.015-9.947c-3.718-1.7-7.607-.688-10.545,2.736a5.079,5.079,0,0,1-.487.436c-.385-.444-.7-.856-1.066-1.221a8.486,8.486,0,0,0-8.652-2.415,8.024,8.024,0,0,0-6.074,6.162,12.668,12.668,0,0,0,.134,5.951c.161.717.5.922,1.223.91,2.633-.043,5.267.013,7.9-.03,1.351-.022,2.678-.137,2.8,1.887a6.265,6.265,0,0,0,.5-1.251c.686-2.385,1.364-4.772,2.053-7.156.175-.606.317-1.315,1.155-1.259.822.055.886.772,1.019,1.389.016.072.022.147.038.219Q-356.631-90.038-355.418-84.391Zm-3.656-7.89c-.2.6-.3.875-.382,1.152-.691,2.382-1.343,4.777-2.1,7.139-.137.428-.693.721-1.056,1.077-.328-.355-.8-.655-.955-1.074-.416-1.14-.7-2.329-1.029-3.492H-373.6c1.025,1.317,1.8,2.488,2.748,3.494a37.936,37.936,0,0,0,8.845,6.863c3.928,2.246,2.586,2.263,6.473-.012a37.74,37.74,0,0,0,9.077-7.276c.817-.908,1.476-1.957,2.331-3.108H-352.3c-.145.48-.293.935-.422,1.395-.569,2.033-1.092,4.08-1.731,6.091-.137.432-.683.733-1.041,1.094-.331-.39-.673-.771-.984-1.176-.08-.1-.057-.286-.088-.431C-357.374-84.346-358.189-88.147-359.074-92.28Z" transform="translate(-52.013 2.451)" fill="#9b9b9b" stroke="#9b9b9b" stroke-width="0.5" fill-rule="evenodd"/>
  </g>
</svg>
