<svg version="1.2" xmlns="http://www.w3.org/2000/svg" viewBox="0 0 120 83" width="120" height="83">
	<style>
		.s0 { fill: #d7d7d7 } 
	</style>
	<g>
		<path fill-rule="evenodd" class="s0" d="m85.68 16.09c-1.3 0-2.35-1.04-2.35-2.34 0-1.3 1.05-2.34 2.35-2.34 1.29 0 2.34 1.04 2.34 2.34 0 1.3-1.05 2.34-2.34 2.34z"/>
		<path fill-rule="evenodd" class="s0" d="m48.98 29.36c-1.29 0-2.34-1.05-2.34-2.34 0-1.3 1.05-2.35 2.34-2.35 1.3 0 2.35 1.05 2.35 2.35 0 1.29-1.05 2.34-2.35 2.34z"/>
		<path class="s0" d="m34.92 29.28h4.69c1.29 0 2.34-1.05 2.34-2.34 0-1.3-1.05-2.35-2.34-2.35h-4.69c-1.29 0-2.34 1.05-2.34 2.35 0 1.29 1.05 2.34 2.34 2.34z"/>
		<path class="s0" d="m108.48 43.73l-4.2-8.43c-0.39-0.79-1.21-1.33-2.09-1.33h-33.71l2.06-4.09 47.72-12.73c1.25-0.34 1.99-1.62 1.66-2.87l-2.43-9.05q-0.06-0.22-0.16-0.43-0.1-0.2-0.24-0.39-0.14-0.18-0.32-0.33-0.17-0.15-0.37-0.27-0.2-0.11-0.42-0.19-0.22-0.07-0.45-0.1-0.22-0.03-0.45-0.01-0.23 0.01-0.46 0.07l-20.49 5.48c-0.61 0.17-1.11 0.55-1.43 1.1-0.31 0.54-0.39 1.17-0.23 1.77 0.27 1.03 1.2 1.74 2.26 1.74 0.21 0 0.41-0.09 0.61-0.09l6.91-1.84 1.21 4.53-32.5 8.68-2.14-4.27 8.4-2.25c1.25-0.33 2-1.62 1.66-2.87q-0.1-0.37-0.31-0.69-0.22-0.32-0.52-0.56-0.31-0.24-0.68-0.36-0.36-0.12-0.75-0.13-0.31 0-0.61 0.08l-9.34 2.46c-0.43-0.68-1.17-1.14-1.98-1.14h-41.02c-0.89 0-1.7 0.54-2.09 1.33l-4.69 9.4c-0.33 0.66-0.33 1.41 0 2.07l1.82 3.61h-5.58c-2.51 0-4.86 1.01-6.63 2.78-1.77 1.77-2.75 4.17-2.75 6.67v4.28c-2.26 1.73-3.75 4.45-3.75 7.44v2.34c0 1.3 1.05 2.27 2.34 2.27h0.85c-0.14 2.11 0.02 4.03 0.61 5.28 4.8 10.17 12.61 15.81 21.98 15.81h68.44c9.37 0 17.18-5.64 21.98-15.81 0.59-1.25 0.75-3.17 0.61-5.28h0.85c1.29 0 2.34-0.97 2.34-2.27v-2.34c0-4.77-6.82-8.08-11.52-9.07zm5.09-35.01l1.22 4.52-6.8 1.82-1.21-4.52zm-12.83 29.94l2.34 4.68h-78.24v-4.68zm-75.62-18.75h38.12l3.52 7.03-3.52 7.03h-38.12l-3.51-7.03zm-16.68 21.17c0-1.25 0.48-2.47 1.37-3.35 0.89-0.89 2.06-1.42 3.31-1.42h7.03v7.04h-11.71zm103.52 19.6c-2.82 5.97-8.18 13.13-17.74 13.13h-68.44c-9.56 0-14.92-7.16-17.74-13.13-0.19-0.4-0.31-1.64-0.16-3.28h7.43c-0.05 0.47-0.08 0.76-0.08 1.14 0 4.52 3.68 8.22 8.21 8.22 4.52 0 8.2-3.71 8.2-8.23 0-0.38-0.03-0.66-0.08-1.13h4.82c-0.03 0.47-0.05 0.77-0.05 1.14 0 5.81 4.73 10.56 10.54 10.56 5.82 0 10.55-4.76 10.55-10.57 0-0.37-0.02-0.66-0.06-1.13h4.81c-0.04 0.47-0.06 0.77-0.06 1.13 0 5.82 4.73 10.57 10.54 10.57 5.82 0 10.55-4.76 10.55-10.57 0-0.37-0.02-0.66-0.06-1.13h5.29c-0.05 0.47-0.07 0.76-0.07 1.13 0 4.53 3.68 8.23 8.2 8.23 4.52 0 8.2-3.71 8.2-8.23 0-0.38-0.02-0.66-0.07-1.13h7.43c0.14 1.64 0.03 2.88-0.16 3.28zm-92.04-2.14c0-0.39 0.06-0.67 0.18-1.14h6.67c0.12 0.47 0.18 0.75 0.18 1.14 0 1.93-1.58 3.51-3.51 3.51-1.94 0-3.52-1.58-3.52-3.51zm21.09 0c0-0.38 0.04-0.67 0.11-1.14h11.51c0.07 0.47 0.1 0.76 0.1 1.14 0 3.23-2.63 5.85-5.86 5.85-3.23 0-5.86-2.62-5.86-5.85zm25.78 0c0-0.38 0.04-0.67 0.11-1.14h11.51c0.07 0.47 0.1 0.76 0.1 1.14 0 3.23-2.62 5.85-5.86 5.85-3.23 0-5.86-2.62-5.86-5.85zm26.25 0c0-0.39 0.07-0.67 0.18-1.14h6.68c0.11 0.47 0.18 0.75 0.18 1.14 0 1.93-1.58 3.51-3.52 3.51-1.94 0-3.52-1.58-3.52-3.51zm-88.35-5.83c0-2.1 2-4.68 4.68-4.68h96.57c1.57 0 4.13 0.77 6.21 1.88 2.39 1.28 3.16 2.57 3.16 2.8z"/>
	</g>
</svg>