<svg xmlns="http://www.w3.org/2000/svg" width="64.994" height="55.588" viewBox="0 0 64.994 55.588">
  <g id="Group_4087" data-name="Group 4087" transform="translate(-1341.507 742.157)">
    <path id="Path_4478" data-name="Path 4478" d="M1377.262-729.024v-3.833c-.517,0-1.007.008-1.5,0a1.36,1.36,0,0,1-1.51-1.481c-.022-1.1-.04-2.211-.025-3.315a4.424,4.424,0,0,1,4.508-4.481q4.973-.037,9.947-.014a4.38,4.38,0,0,1,4.463,4.312c.047,1.169.032,2.34.014,3.51a1.356,1.356,0,0,1-1.519,1.472c-.473.01-.946,0-1.466,0v3.83c.541,0,1.072.011,1.6,0a16.218,16.218,0,0,1,5.395.608,13.276,13.276,0,0,1,9.3,12.491c.042,7.281.03,14.563,0,21.844a7.477,7.477,0,0,1-7.5,7.492q-24.964.036-49.929.016a7.355,7.355,0,0,1-7.46-7.025,67.852,67.852,0,0,1,.211-9.93,28.817,28.817,0,0,1,21.462-24.583,28.582,28.582,0,0,1,7.2-.921q3.023,0,6.046.01Zm26.419,30.52c.02-.2.052-.367.052-.537,0-5.59.061-11.182-.014-16.771a10.518,10.518,0,0,0-10.527-10.5c-7.67-.028-15.341-.042-23.011,0a24.73,24.73,0,0,0-12.864,3.589,25.905,25.905,0,0,0-12.913,20.106,36.3,36.3,0,0,0-.022,4.113ZM1374-695.721h-28.851a1.137,1.137,0,0,0-.449.015c-.158.075-.4.236-.394.356a11.646,11.646,0,0,0,.154,2.451c.535,2.267,2.428,3.583,5,3.584q22.191,0,44.381,0c1.646,0,3.292-.006,4.938,0a4.8,4.8,0,0,0,3.8-1.665,5.211,5.211,0,0,0,1.18-3.871c-.039-.871-.019-.872-.906-.872Zm16.422-39.906c0-.638,0-1.178,0-1.717,0-1.451-.6-2.06-2.044-2.064q-4.388-.01-8.775,0a9.657,9.657,0,0,0-1.168.039,1.584,1.584,0,0,0-1.432,1.382c-.063.769-.014,1.547-.014,2.36Zm-3.069,6.6v-3.79h-7.349c0,1.176-.014,2.315.022,3.452,0,.116.311.313.482.319,1.015.032,2.031.019,3.047.02Z" fill="#9b9b9b" fill-rule="evenodd"/>
    <path id="Path_4479" data-name="Path 4479" d="M1584.8-536.07c-.455,0-.91.008-1.364,0a1.367,1.367,0,0,1-1.489-1.367,1.348,1.348,0,0,1,1.463-1.324c.866-.013,1.734-.032,2.6.008.495.023.7-.138.859-.621a6.3,6.3,0,0,1,8.384-3.911,6.082,6.082,0,0,1,3.652,3.972.656.656,0,0,0,.77.56c.886-.036,1.775-.018,2.663-.009a1.366,1.366,0,0,1,1.483,1.371,1.357,1.357,0,0,1-1.47,1.319c-.909.012-1.82.027-2.728-.006-.429-.016-.589.149-.714.54a6.25,6.25,0,0,1-6.044,4.448,6.256,6.256,0,0,1-6.005-4.414.677.677,0,0,0-.823-.571C1585.63-536.043,1585.216-536.07,1584.8-536.07Zm11.685-1.323a3.591,3.591,0,0,0-3.548-3.628,3.6,3.6,0,0,0-3.665,3.581,3.618,3.618,0,0,0,3.617,3.636A3.607,3.607,0,0,0,1596.489-537.393Z" transform="translate(-209.181 -172.603)" fill="#9b9b9b" fill-rule="evenodd"/>
    <path id="Path_4480" data-name="Path 4480" d="M1415.635-590.952c.3,0,.606-.006.908,0a1.406,1.406,0,0,1,1.527,1.346c.012.786-.583,1.31-1.484,1.4a27.7,27.7,0,0,0-4.309.515c-8.175,2.128-13.141,7.391-14.968,15.626-.241,1.086-1.1,1.617-1.977,1.182a1.4,1.4,0,0,1-.705-1.654,22.127,22.127,0,0,1,7.54-13.073A22.353,22.353,0,0,1,1415.635-590.952Z" transform="translate(-46.178 -131.543)" fill="#9b9b9b" fill-rule="evenodd"/>
  </g>
</svg>
