<svg xmlns="http://www.w3.org/2000/svg" width="66.521" height="74.505" viewBox="0 0 66.521 74.505">
  <g id="Group_7" data-name="Group 7" transform="translate(-2068.427 2760.75)">
    <path id="Path_27" data-name="Path 27" d="M2127.119-2567.652c-.859-1.754-1.706-3.514-2.593-5.253-1.922-3.764-3.865-7.516-5.8-11.273a3.233,3.233,0,0,1,.36-3.1,16.112,16.112,0,0,1,1.786-1.592q3.505-2.7,7.047-5.36a1.179,1.179,0,0,0,.512-.937q.6-7.074,1.244-14.146c.161-1.8.282-3.606.514-5.4a6.846,6.846,0,0,1,3.793-5.3,3.881,3.881,0,0,1,1.96-.484c2.263.013,4.526-.035,6.789-.059h.294l6.1-.033,3.422.028c1.488.029,2.976.05,4.464.089a1.735,1.735,0,0,1,.63.153,7.1,7.1,0,0,1,3.26,2.561,13.331,13.331,0,0,1,1.066,2.014,3.885,3.885,0,0,1,.158,1.161q.517,5.693,1.026,11.388c.249,2.792.487,5.586.746,8.377a.753.753,0,0,0,.273.465c2.8,2.146,5.6,4.3,8.428,6.406a2.894,2.894,0,0,1,.936,3.422c-.528,1.176-1.046,2.358-1.629,3.506q-3.4,6.706-6.838,13.391m-32.906-29.8c-1.746,1.286,2.212-1.6,3.313-2.4a72.81,72.81,0,0,1,6.5-4.4,7.682,7.682,0,0,1,8.284-.015c1.685,1.007,3.31,2.118,4.927,3.233,1.548,1.068,6.2,4.791,4.573,3.3,0,0-6.185-5.48-10.631-7.114s-7.153.579-7.153.579Z" transform="translate(-44.74 -126.782)" fill="none" stroke="#9b9b9b" stroke-linecap="round" stroke-linejoin="bevel" stroke-width="2.5" fill-rule="evenodd"/>
    <path id="Path_28" data-name="Path 28" d="M2133.473-1858.938a2.65,2.65,0,0,1-.836-.36c-.376-.232-.707-.535-1.083-.767a4.386,4.386,0,0,0-5-.063,9.4,9.4,0,0,0-1.083.826,8.49,8.49,0,0,1-5.569,2.207,8.124,8.124,0,0,1-5.526-2,11.435,11.435,0,0,0-1.288-.983,4.336,4.336,0,0,0-5.259.18c-.458.331-.879.712-1.329,1.053a8.3,8.3,0,0,1-10.514-.256,6.545,6.545,0,0,0-2.585-1.588,4.613,4.613,0,0,0-4.442,1.145,9.212,9.212,0,0,1-3.78,2.147,8.086,8.086,0,0,1-7.307-1.473c-.458-.353-.9-.73-1.368-1.065a4.544,4.544,0,0,0-5.7.17c-.212.169-.417.345-.63.512" transform="translate(0 -830.412)" fill="none" stroke="#9b9b9b" stroke-linecap="round" stroke-width="2.5" fill-rule="evenodd"/>
    <path id="Path_29" data-name="Path 29" d="M2133.473-1949.979a2.656,2.656,0,0,1-.836-.36c-.376-.232-.707-.535-1.083-.767a4.385,4.385,0,0,0-5-.063,9.372,9.372,0,0,0-1.083.826,8.492,8.492,0,0,1-5.569,2.207,8.123,8.123,0,0,1-5.526-2,11.507,11.507,0,0,0-1.288-.983,4.336,4.336,0,0,0-5.259.181c-.458.331-.879.712-1.329,1.053a8.3,8.3,0,0,1-10.514-.256,6.544,6.544,0,0,0-2.585-1.588,4.613,4.613,0,0,0-4.442,1.145,9.215,9.215,0,0,1-3.78,2.147,8.086,8.086,0,0,1-7.307-1.474c-.458-.353-.9-.73-1.368-1.065a4.545,4.545,0,0,0-5.7.17c-.212.169-.417.345-.63.512" transform="translate(0 -746.091)" fill="none" stroke="#9b9b9b" stroke-linecap="round" stroke-width="2.5" fill-rule="evenodd"/>
    <path id="Path_30" data-name="Path 30" d="M2403.78-2289.43a1.159,1.159,0,0,1-.476.91c-.677.484-1.353.973-2.062,1.406a1.382,1.382,0,0,1-1.85-.435,1.406,1.406,0,0,1,.036-1.826,6.517,6.517,0,0,1,2.378-1.565A1.522,1.522,0,0,1,2403.78-2289.43Z" transform="translate(-304.618 -432.015)" fill="#9b9b9b" fill-rule="evenodd"/>
    <path id="Path_31" data-name="Path 31" d="M2528.165-2288.608a1.49,1.49,0,0,1-2.261,1.416,12.451,12.451,0,0,1-2.061-1.461,1.238,1.238,0,0,1-.187-1.646,1.392,1.392,0,0,1,1.628-.7,7.494,7.494,0,0,1,2.651,1.754C2528.081-2289.1,2528.092-2288.823,2528.165-2288.608Z" transform="translate(-419.795 -431.977)" fill="#9b9b9b" fill-rule="evenodd"/>
    <line id="Line_2" data-name="Line 2" y1="12.181" transform="translate(2100.983 -2759.5)" fill="none" stroke="#9b9b9b" stroke-linecap="round" stroke-width="2.5"/>
    <line id="Line_3" data-name="Line 3" y1="6.387" transform="translate(2105.707 -2753.707)" fill="none" stroke="#9b9b9b" stroke-linecap="round" stroke-width="2.5"/>
  </g>
</svg>
