<svg xmlns="http://www.w3.org/2000/svg" width="46.98" height="62.54" viewBox="0 0 46.98 62.54">
  <g id="Group_4088" data-name="Group 4088" transform="translate(-1500.785 732.995)">
    <path id="Path_4481" data-name="Path 4481" d="M1500.8-687.41c0-3.283.045-6.567-.016-9.849a11.05,11.05,0,0,1,1.533-6.057,21.142,21.142,0,0,0,2.386-6.84,41.238,41.238,0,0,0,.635-9.517,52.378,52.378,0,0,0-.82-7.579,2.943,2.943,0,0,1,1.883-3.436c1.041-.407,2.089-.8,3.133-1.195.733-.28,1.467-.559,2.2-.842a2.949,2.949,0,0,1,3.814,1.211,10.181,10.181,0,0,0,6.627,4.643,9.916,9.916,0,0,0,8.97-2.449,11.753,11.753,0,0,0,1.928-2.281,2.921,2.921,0,0,1,3.619-1.175q2.737,1.034,5.466,2.087a2.921,2.921,0,0,1,1.895,3.363,54.971,54.971,0,0,0-.756,6.262,48.824,48.824,0,0,0,.038,6.984,31.68,31.68,0,0,0,1.367,7.2,19.258,19.258,0,0,0,1.787,4.036,8.778,8.778,0,0,1,1.272,4.618q0,10.866,0,21.733a3.777,3.777,0,0,1-2.979,3.922,56.6,56.6,0,0,1-8.96,1.695,81.626,81.626,0,0,1-9.97.408c-2.331-.021-4.664.04-6.994-.007a60.408,60.408,0,0,1-15.249-2.139,3.77,3.77,0,0,1-2.806-3.806Q1500.8-681.914,1500.8-687.41Zm40-33.358c.021-.282-.155-.192-.3-.151-.891.256-1.782.516-2.674.769a6.447,6.447,0,0,1-2.374.42,4.544,4.544,0,0,1-3.9-2.717c-.44-.923-.864-1.854-1.281-2.788-.116-.259-.224-.321-.506-.192a12.6,12.6,0,0,1-10.966,0c-.249-.114-.372-.1-.49.162-.415.935-.86,1.856-1.275,2.791a4.592,4.592,0,0,1-5.611,2.521c-1.109-.356-2.239-.645-3.359-.968-.183-.053-.32-.1-.3.194.085,1.614.139,3.227.066,4.847a43.325,43.325,0,0,1-.584,5.634,26.379,26.379,0,0,1-3.152,8.86,5.349,5.349,0,0,0-.787,2.744c0,2.593,0,5.187-.007,7.78a.47.47,0,0,0,.359.528c1,.322,1.99.651,2.978.993a.488.488,0,0,0,.628-.2,2.575,2.575,0,0,1,2.553-1.01c1.805.3,3.607.635,5.405.978a2.652,2.652,0,0,1,2.2,2.122c.058.233.142.329.39.358,1.182.137,2.369.229,3.555.25,2.413.043,4.829.074,7.241-.061.676-.038,1.349-.113,2.024-.173a.352.352,0,0,0,.365-.309,2.714,2.714,0,0,1,2.356-2.22q2.545-.458,5.088-.924a2.669,2.669,0,0,1,2.814,1.107.341.341,0,0,0,.447.149q1.59-.532,3.186-1.047a.488.488,0,0,0,.392-.541c-.012-2.605,0-5.21-.009-7.815a5.182,5.182,0,0,0-.735-2.615,25.308,25.308,0,0,1-2-4.3,36.737,36.737,0,0,1-1.833-11.253C1540.665-718.153,1540.756-719.459,1540.8-720.767Zm4.467,42.487c0-.737,0-1.475,0-2.212,0-.218-.053-.306-.293-.222-.573.2-1.151.383-1.729.565a.486.486,0,0,0-.335.332,2.724,2.724,0,0,1-2.219,1.838c-1.731.316-3.463.625-5.192.947a2.586,2.586,0,0,1-2.207-.55.939.939,0,0,0-.811-.211,46.878,46.878,0,0,1-5.9.463,66.773,66.773,0,0,1-10.817-.489.623.623,0,0,0-.543.165,2.59,2.59,0,0,1-2.184.638q-2.685-.48-5.367-.978a2.715,2.715,0,0,1-2.191-1.87.507.507,0,0,0-.364-.347c-.489-.15-.98-.3-1.457-.479-.3-.116-.37-.033-.368.265.01,1.356,0,2.712,0,4.068a1.247,1.247,0,0,0,1.085,1.406q1.993.557,4.027.943a59.9,59.9,0,0,0,9.559,1.034c1.295.036,2.588.053,3.885.026,1.973-.042,3.947-.006,5.921.02a62.234,62.234,0,0,0,8.961-.531,54.473,54.473,0,0,0,7.407-1.479,1.267,1.267,0,0,0,1.124-1.449C1545.269-677.019,1545.268-677.65,1545.267-678.28Zm-20.743-1.544a47.318,47.318,0,0,0,7.193-.349c.291-.037.355-.134.3-.409-.234-1.226-.465-2.452-.665-3.684-.058-.357-.218-.412-.53-.378a38.868,38.868,0,0,1-4.124.269c-1.807,0-3.615,0-5.422-.007-.225,0-.451-.022-.676-.033-1.044-.054-2.087-.125-3.126-.241-.2-.023-.344.029-.385.262-.23,1.287-.468,2.572-.7,3.858-.035.194.015.324.241.345,1.005.093,2.009.2,3.015.285C1521.188-679.782,1522.735-679.814,1524.524-679.824ZM1512.6-722.207a2.15,2.15,0,0,0,2.188-1.28c.482-1.035.943-2.078,1.439-3.106a.449.449,0,0,0-.148-.636,13.186,13.186,0,0,1-2.621-2.993.535.535,0,0,0-.724-.248c-1.775.683-3.554,1.355-5.329,2.038-.434.167-.523.3-.448.762.2,1.231.387,2.464.526,3.7a.476.476,0,0,0,.416.448c1.134.314,2.261.653,3.4.965A6.146,6.146,0,0,0,1512.6-722.207Zm23.135-.006a2.524,2.524,0,0,0,.739-.108c1.381-.4,2.762-.806,4.15-1.182a.561.561,0,0,0,.479-.557c.121-1.182.3-2.356.5-3.528.091-.537,0-.678-.495-.869-1.743-.666-3.49-1.324-5.23-2a.546.546,0,0,0-.759.222,13.619,13.619,0,0,1-2.7,3.067.359.359,0,0,0-.113.494c.51,1.087.992,2.187,1.514,3.268A1.988,1.988,0,0,0,1535.734-722.213Zm-22.408,42.747c.305.044.4-.14.445-.392q.605-3.349,1.214-6.7c.088-.486.043-.558-.441-.647q-2.4-.442-4.8-.873c-.549-.1-.589-.069-.693.5q-.608,3.313-1.209,6.627c-.065.361.018.481.37.546q1.489.276,2.979.55C1511.9-679.721,1512.613-679.594,1513.326-679.466Zm21.7,0c.047,0,.1-.005.142-.014q2.559-.464,5.119-.93c.266-.049.344-.219.3-.472q-.632-3.453-1.262-6.907c-.046-.248-.176-.376-.449-.325q-2.541.47-5.083.931c-.339.061-.455.216-.381.57.167.8.3,1.612.447,2.418q.4,2.174.791,4.348C1534.692-679.637,1534.759-679.453,1535.03-679.469Zm10.237-6.146c0-.629-.007-1.259,0-1.888,0-.256-.047-.336-.323-.242-.876.3-1.759.578-2.644.849-.212.065-.288.146-.245.375.227,1.2.444,2.4.658,3.606.043.242.145.323.391.233.614-.223,1.23-.438,1.851-.639a.394.394,0,0,0,.312-.442C1545.26-684.38,1545.268-685,1545.268-685.615Zm-41.968-.021c0,.629,0,1.259,0,1.888a.358.358,0,0,0,.258.407c.609.2,1.213.416,1.817.63.187.067.291.026.327-.18.219-1.227.435-2.454.668-3.678.046-.243-.059-.307-.255-.368-.838-.262-1.676-.527-2.507-.811-.252-.086-.314-.023-.31.224C1503.306-686.894,1503.3-686.265,1503.3-685.635Z" transform="translate(0 0)" fill="#9b9b9b" fill-rule="evenodd"/>
    <path id="Path_4482" data-name="Path 4482" d="M1708.464-437.475q-3.943,0-7.885,0a1.29,1.29,0,0,1-1.307-.747,1.216,1.216,0,0,1,.814-1.687,2.514,2.514,0,0,1,.6-.062q7.814,0,15.628,0a1.468,1.468,0,0,1,1.2.428,1.163,1.163,0,0,1,.242,1.26,1.24,1.24,0,0,1-1.052.8,2.92,2.92,0,0,1-.427.013Z" transform="translate(-184.216 -272.105)" fill="#9b9b9b" fill-rule="evenodd"/>
    <path id="Path_4483" data-name="Path 4483" d="M1708.39-367.329q4.012,0,8.023,0a1.223,1.223,0,0,1,1.25.811,1.238,1.238,0,0,1-1.066,1.634,2.912,2.912,0,0,1-.356.011q-7.845,0-15.689,0a2.352,2.352,0,0,1-.5-.038,1.234,1.234,0,0,1-1-1.287,1.207,1.207,0,0,1,1.244-1.127C1702.994-367.332,1705.692-367.328,1708.39-367.329Z" transform="translate(-184.11 -339.565)" fill="#9b9b9b" fill-rule="evenodd"/>
    <path id="Path_4484" data-name="Path 4484" d="M1708.535-295.3q4.015,0,8.03,0a1.241,1.241,0,0,1,1.223.807,1.219,1.219,0,0,1-.887,1.6,2.215,2.215,0,0,1-.495.047q-7.887,0-15.774,0a1.679,1.679,0,0,1-.765-.138,1.227,1.227,0,0,1-.66-1.337,1.173,1.173,0,0,1,1.155-.977c.833-.013,1.665-.005,2.5-.005Z" transform="translate(-184.236 -406.451)" fill="#9b9b9b" fill-rule="evenodd"/>
  </g>
</svg>
